<svg xmlns="http://www.w3.org/2000/svg" viewBox="0 0 172.91 68.12"><defs><style>.cls-2{fill:#242424}</style></defs><g id="Layer_2" data-name="Layer 2"><g id="Layer_1-2" data-name="Layer 1"><path d="M129.62 40.3c-.36 0 3.13-2.84 3.13-2.84-.62-.2 1.7-2.92 1.44-3.68l2.81-8.61c.2-4.19-2.06-7.71-5.07-10.62-2-1.64-4.05-1.64-6-2.94-5.48-2.76-8.88 1.25-13.25 2.63a14.27 14.27 0 00-3.92 13.59c.39 3.44 3.35 4.8 5.76 6.51 4.7 1.74 8.73 0 12-2 .34-.79.34-.92.6-1.48l1.43-1.17-.31-1.49c.57-1.27.93-3.16-.21-4.49-1.51-2.15-4.31-2.55-5.69-4.8a2.85 2.85 0 00-.78-.44l-3.61.67c-1.79 1.56-1.14 5-1 7.61 0 .15.21.36.54.48a1.55 1.55 0 00.71 0l.9-4.8c.08-1.17 1.74.36 2.32.51a11.59 11.59 0 003 3c.1.21.18.46.33.87-1 2.15-2.18 3.58-4.31 4.19-2.51-.26-5.17-2-7-3.35a10.09 10.09 0 01-.08-10.39c2.64-2.07 5.84-3.78 9.47-3.35a2.41 2.41 0 01.91.79c.39.06.58-.05 1.07 0 3.95 1 6.88 4.32 8.39 8.18-.11 7.22-3.28 12.28-8.62 15.52-5.56 1.38-11.07.67-14.84-3.55-3.19-4.52-6.28-8.7-6-14.09 1.54-2.3 2.63-4.45 4.27-6.77 1-.41 2.54-.79 3.14-2.27a2.36 2.36 0 01.85-2.03l12.77-.18c.71-.25.06-1.09-.23-1.5-1-.77-1.56-.9-2.23-1.46h-.44a19.31 19.31 0 00-9.48-.2c-3.38 2.48-7.2 3.65-8.57 8-3.28 4.49-5.07 11.59-2.58 18 2.37 5.18 6.73 8.07 10.55 11.08 6 1.87 12.08 0 16.44-2.45" fill="#fdb913"/><path class="cls-2" d="M.05.35h4.07v17.81h28.39V.35h4.08v42.11h-4.08V22.17H4.12v20.29H.05zM73.34 32.67C71.69 38.1 67.4 43.4 57.94 43.4c-11.73 0-15.58-8.78-15.58-16.27 0-8.55 4.9-16.28 15.58-16.28 7.37 0 16.12 3.42 16.12 17.34H46.44c0 6.37 4.23 11.56 11.5 11.56 6.82 0 9.9-2.42 11.33-7.08zM70 24.89c-1.16-7.55-6.33-10.38-11.78-10.38-5.23 0-10.84 2.89-11.77 10.38zM78.9 0H83v42.46h-4.1zM163.7 20.88c-1-5-3.91-6.37-9.85-6.37-4.29 0-8.25 1-8.25 5.25 0 3.18 1.92 3.83 10.61 5.07s12.39 2.89 12.39 8.84S164 43.4 155 43.4s-14.48-3.18-14.48-10.55h3.75c.71 5.13 3.41 6.9 10.73 6.9 5.66 0 9.51-1.24 9.51-5.84 0-3.07-2-4.42-11-5.37s-12-3.18-12-8.61 4-9.08 12.33-9.08c9.3 0 13.1 3.6 13.59 10zM0 54.39h8.85v1.09H1.22v4.86h7.14v1.09H1.22v5.31h7.72v1.09H0zM18.57 67.83h-1V66a3.67 3.67 0 01-3.31 2.13C11.38 68.12 10 65.73 10 63s1.35-5.15 4.16-5.15A3.31 3.31 0 0117.41 60v-5.61h1.13zm-4.38-.71c2.41 0 3.25-2.13 3.25-4.14s-.84-4.15-3.25-4.15c-2.15 0-3 2.13-3 4.15s.81 4.14 3 4.14zM28.23 67.83h-1v-1.75a3.43 3.43 0 01-3.19 2c-2.34 0-3.25-1.43-3.25-3.69v-6.27h1.13v6.32c.05 1.76.68 2.68 2.48 2.68s2.78-1.92 2.78-3.9v-5.1h1.13zM36.89 61.17a2.55 2.55 0 00-2.62-2.34C32.1 58.83 31 60.91 31 63s1.07 4.14 3.24 4.14A2.84 2.84 0 0037 64.35h1.1c-.31 2.34-1.76 3.77-3.83 3.77-2.83 0-4.37-2.36-4.37-5.14s1.54-5.15 4.37-5.15A3.53 3.53 0 0138 61.17zM39.57 61.09c.11-2.27 1.63-3.26 3.75-3.26 1.63 0 3.41.53 3.41 3.13v5.16c0 .45.21.72.66.72a1 1 0 00.36-.08v1a2.79 2.79 0 01-.73.07c-1.15 0-1.33-.67-1.33-1.69a3.51 3.51 0 01-3.37 2c-1.71 0-3.11-.89-3.11-2.85 0-2.73 2.53-2.82 5-3.12.94-.12 1.46-.25 1.46-1.32 0-1.6-1.1-2-2.42-2a2.19 2.19 0 00-2.48 2.26zm6 1.43c-.14.29-.64.38-1 .44-1.92.36-4.31.34-4.31 2.24a2 2 0 002.07 1.92 3 3 0 003.23-3.05zM50.78 58.12h1.89v1h-1.89v6.55c0 .77.11 1.22.92 1.28a8 8 0 001-.06v1h-1c-1.51 0-2-.53-2-2.19v-6.58H48v-1h1.61V55.2h1.13zM54.32 54.39h1.13v1.9h-1.13zm0 3.73h1.13v9.71h-1.13zM65.91 63c0 2.78-1.54 5.14-4.38 5.14s-4.38-2.38-4.38-5.14 1.55-5.15 4.38-5.15 4.38 2.34 4.38 5.15zm-7.63 0c0 2.07 1.08 4.14 3.25 4.14s3.25-2.07 3.25-4.14-1.08-4.15-3.25-4.15-3.25 2.06-3.25 4.15zM67.58 58.12h1.13v1.67a3.14 3.14 0 013-2c2.6 0 3.39 1.44 3.39 3.75v6.25H74v-6.02c0-1.68-.52-2.94-2.35-2.94s-2.87 1.43-2.91 3.34v5.66h-1.16zM82.44 54.39h8.13v1.09h-6.91v4.86h6.13v1.09h-6.13v6.4h-1.22zM100.15 63c0 2.78-1.54 5.14-4.38 5.14s-4.38-2.38-4.38-5.14 1.54-5.15 4.38-5.15 4.38 2.34 4.38 5.15zm-7.63 0c0 2.07 1.08 4.14 3.25 4.14S99 65.05 99 63s-1.08-4.15-3.25-4.15-3.23 2.06-3.23 4.15zM109.34 67.83h-1v-1.75a3.43 3.43 0 01-3.2 2c-2.33 0-3.24-1.43-3.24-3.69v-6.27h1.1v6.32c0 1.76.68 2.68 2.47 2.68s2.78-1.92 2.78-3.9v-5.1h1.14zM111.45 58.12h1.13v1.67a3.14 3.14 0 013-2c2.6 0 3.39 1.44 3.39 3.75v6.25h-1.13v-6.02c0-1.68-.52-2.94-2.35-2.94s-2.87 1.43-2.91 3.34v5.66h-1.13zM129.25 67.83h-1V66a3.67 3.67 0 01-3.31 2.13c-2.81 0-4.16-2.39-4.16-5.14s1.35-5.15 4.16-5.15a3.31 3.31 0 013.15 2.16v-5.61h1.13zm-4.38-.71c2.41 0 3.25-2.13 3.25-4.14s-.84-4.15-3.25-4.15c-2.15 0-3 2.13-3 4.15s.85 4.14 3 4.14zM131.3 61.09c.11-2.27 1.63-3.26 3.75-3.26 1.63 0 3.41.53 3.41 3.13v5.16c0 .45.22.72.66.72a1 1 0 00.36-.08v1a2.79 2.79 0 01-.73.07c-1.15 0-1.33-.67-1.33-1.69a3.5 3.5 0 01-3.37 2c-1.71 0-3.11-.89-3.11-2.85 0-2.73 2.54-2.82 5-3.12.94-.12 1.46-.25 1.46-1.32 0-1.6-1.1-2-2.42-2a2.19 2.19 0 00-2.48 2.26zm6 1.43c-.14.29-.64.38-.95.44-1.92.36-4.3.34-4.3 2.24a2 2 0 002.06 1.92 3 3 0 003.23-3.05zM142.51 58.12h1.89v1h-1.89v6.55c0 .77.11 1.22.92 1.28a7.89 7.89 0 001-.06v1h-1c-1.5 0-2-.53-2-2.19v-6.58h-1.61v-1h1.61V55.2h1.13zM146.05 54.39h1.13v1.9h-1.13zm0 3.73h1.13v9.71h-1.13zM157.64 63c0 2.78-1.54 5.14-4.38 5.14s-4.38-2.36-4.38-5.14 1.55-5.15 4.38-5.15 4.38 2.34 4.38 5.15zM150 63c0 2.07 1.07 4.14 3.24 4.14s3.25-2.07 3.25-4.14-1.07-4.15-3.25-4.15S150 60.91 150 63zM159.31 58.12h1.13v1.67a3.14 3.14 0 013-2c2.6 0 3.39 1.44 3.39 3.75v6.25h-1.13v-6.02c0-1.68-.52-2.94-2.35-2.94s-2.87 1.43-2.91 3.34v5.66h-1.13zM90 11h4.2v31.47H90zM94.84 3.27a2.53 2.53 0 11-5.06 0 2.53 2.53 0 115.06 0zM170.26 11.68a2.71 2.71 0 11-2.69 2.7 2.66 2.66 0 012.69-2.7zm0 .42a2.29 2.29 0 000 4.58 2.2 2.2 0 002.16-2.28 2.22 2.22 0 00-2.16-2.3zm-.5 3.86h-.48v-3a6.18 6.18 0 01.85-.07 1.59 1.59 0 01.93.23.72.72 0 01.28.62.75.75 0 01-.59.74c.27 0 .45.29.51.73a2.46 2.46 0 00.19.75h-.51a2.4 2.4 0 01-.2-.77.56.56 0 00-.65-.53h-.33zm0-1.67h.34c.4 0 .74-.14.74-.52s-.2-.52-.74-.52h-.34z"/></g></g></svg>